<svg width="30" height="30" viewBox="0 0 30 30" fill="none" xmlns="http://www.w3.org/2000/svg">
<path d="M28.1896 10.5369C25.219 7.62395 22.2485 4.71317 19.2608 1.8174C16.7107 -0.653648 12.9144 -0.595733 10.4329 1.93538C7.5439 4.88262 4.65703 7.82987 1.78088 10.7878C-0.614844 13.2503 -0.597686 17.0792 1.85809 19.5202C4.80931 22.4503 7.79056 25.3525 10.7868 28.2375C12.226 29.6232 13.9654 30.2045 15.9708 29.9363C17.5515 29.7261 18.7933 28.9303 19.8807 27.8085C22.4823 25.1251 25.0775 22.4352 27.7156 19.7883C29.0925 18.4069 30.0169 16.8561 29.9998 14.548C29.9461 13.1838 29.3906 11.7188 28.1896 10.5412V10.5369ZM25.1032 16.8625C24.3182 17.6733 23.1064 17.9007 22.0812 17.4288L20.2775 16.6008C19.5268 16.2555 19.0249 15.5305 18.9649 14.7068C18.8941 13.7394 18.4716 12.7913 17.6973 12.077C16.1123 10.6119 13.6029 10.6977 12.1166 12.2636C10.6195 13.8423 10.6689 16.337 12.2367 17.8535C12.9681 18.5614 13.8989 18.9324 14.8426 18.9689C15.6619 19.0011 16.3933 19.4859 16.76 20.2194L17.6523 22.0062C18.1563 23.0165 17.9675 24.2349 17.1826 25.0457C16.0909 26.174 14.2935 26.2019 13.1654 25.1101L4.98304 17.1885C3.85488 16.0967 3.827 14.2992 4.91869 13.1709L12.8394 4.98773C13.9311 3.85945 15.7284 3.83157 16.8565 4.92338L25.0389 12.8449C26.167 13.9367 26.1949 15.7342 25.1032 16.8625Z" fill="white"/>
</svg>
