<?xml version="1.0" standalone="no"?>
<!DOCTYPE svg PUBLIC "-//W3C//DTD SVG 20010904//EN"
 "http://www.w3.org/TR/2001/REC-SVG-20010904/DTD/svg10.dtd">
<svg version="1.0" xmlns="http://www.w3.org/2000/svg"
 width="512.000000pt" height="512.000000pt" viewBox="0 0 512.000000 512.000000"
 preserveAspectRatio="xMidYMid meet">
<metadata>
Created by potrace 1.14, written by Peter Selinger 2001-2017
</metadata>
<g transform="translate(0.000000,512.000000) scale(0.100000,-0.100000)"
fill="#000000" stroke="none">
<path d="M2429 5116 c-2 -2 -24 -7 -49 -10 -130 -17 -292 -82 -425 -171 -79
-52 -190 -160 -602 -581 -281 -288 -782 -800 -843 -863 -292 -298 -362 -389
-427 -547 -61 -151 -77 -231 -77 -394 0 -149 4 -187 30 -277 8 -29 15 -56 16
-60 8 -50 106 -233 171 -320 45 -60 796 -799 1577 -1552 113 -109 208 -181
304 -230 72 -37 178 -75 237 -86 13 -3 47 -9 74 -14 52 -10 285 -7 345 4 221
41 420 150 605 332 39 38 178 181 310 317 285 295 304 315 777 797 431 439
467 482 557 664 76 154 111 323 107 515 -4 141 -29 245 -95 385 -82 173 -79
170 -831 905 -200 195 -402 393 -450 440 -281 275 -511 494 -555 528 -114 89
-271 162 -424 199 -57 13 -322 28 -332 19z m266 -726 c80 -27 150 -78 280
-204 90 -88 472 -458 645 -626 37 -36 177 -171 310 -300 345 -334 362 -351
392 -390 35 -47 63 -98 73 -135 4 -16 10 -37 12 -45 13 -42 14 -159 3 -209
-46 -211 -221 -364 -429 -375 -86 -4 -159 14 -273 67 -51 24 -132 61 -181 83
-185 83 -271 187 -291 352 -12 102 -18 128 -48 205 -65 169 -203 306 -381 377
-371 148 -798 -67 -902 -455 -25 -91 -25 -254 -1 -345 74 -279 309 -477 600
-505 132 -12 216 -46 284 -116 52 -53 234 -405 258 -501 53 -204 -56 -428
-250 -519 -207 -97 -403 -55 -591 126 -101 97 -513 497 -640 620 -46 44 -190
184 -321 310 -416 402 -456 445 -487 509 -79 163 -67 345 31 490 20 30 141
161 267 291 328 339 344 355 610 630 490 508 595 610 660 640 118 57 249 65
370 25z"/>
</g>
</svg>
